PathFileType	4	(X/Y/Z)	Patient4_TMGait_0pt6_01_left_30.trc.trc
DataRate	CameraRate	NumFrames	NumMarkers	Units	OrigDataRate	OrigDataStartFrame	OrigNumFrames
86.419753086420	86.419753086420	4	33	mm	86.419753086420	18	       141
Frame#	Time	Sacral			L.Shoulder			Chest			R.Shoulder			Neck			R.ASIS			L.ASIS			R.Thigh.Superior			R.Thigh.Lateral			R.Thigh.Inferior			R.Patella			L.Thigh.Superior			L.Thigh.Lateral			L.Thigh.Inferior			L.Patella			L.Shank.Superior			L.Shank.Lateral			L.Shank.Inferior			R.Shank.Superior			R.Shank.Lateral			R.Shank.Inferior			R.Heel			R.Midfoot.Superior			R.Midfoot.Lateral			R.Toe			L.Heel			L.Midfoot.Lateral			L.Midfoot.Superior			L.Toe			L.Elbow			L.Wrist			R.Elbow			R.Wrist			
		X1	Y1	Z1	X2	Y2	Z2	X3	Y3	Z3	X4	Y4	Z4	X5	Y5	Z5	X6	Y6	Z6	X7	Y7	Z7	X8	Y8	Z8	X9	Y9	Z9	X10	Y10	Z10	X11	Y11	Z11	X12	Y12	Z12	X13	Y13	Z13	X14	Y14	Z14	X15	Y15	Z15	X16	Y16	Z16	X17	Y17	Z17	X18	Y18	Z18	X19	Y19	Z19	X20	Y20	Z20	X21	Y21	Z21	X22	Y22	Z22	X23	Y23	Z23	X24	Y24	Z24	X25	Y25	Z25	X26	Y26	Z26	X27	Y27	Z27	X28	Y28	Z28	X29	Y29	Z29	X30	Y30	Z30	X31	Y31	Z31	X32	Y32	Z32	X33	Y33	Z33	

18	36.706714285714	720.197217754224	1004.628525449667	520.490571437784	858.395215299654	1433.594253542831	329.264337939019	986.237972195278	1364.826510503620	471.133755273566	928.893219783329	1432.479320853985	656.672198754340	861.197189145553	1490.685610379027	485.265774470134	952.327451566327	937.171088575587	615.213969990749	915.880525097857	957.821866352654	342.195956141291	947.066049211079	724.362213484439	587.732131913259	841.729453035337	631.045392797712	648.629932139321	900.414954470354	566.702248648721	567.410871580518	881.204614793844	482.787191221144	570.933390429660	994.828853775998	778.612937267929	367.113199724784	948.980206718138	647.158128857067	290.818381512889	1058.817801113728	594.192884417508	345.876922124185	1090.055580286111	531.643372410845	342.005347450093	1078.144646942621	459.459753535552	335.913588771319	1018.767849297718	323.897103504955	292.175594504259	1116.122407543061	232.831516926708	343.391082543171	844.340003096269	398.306858045796	575.242189518621	761.214724610711	300.458990650278	632.295849126599	795.572297087911	203.889132864513	566.356897593891	650.963835271873	43.417109985422	525.202098934991	822.176587451413	96.690487093265	567.957817875693	731.511825903705	36.426526141099	602.079417371991	940.058998607451	42.133484617695	598.684234052912	1049.028836111348	48.220562994454	391.415345333114	1119.283195223417	53.848449847773	308.216359191081	1184.667458921150	137.705059982674	321.455534041113	1318.779364390012	117.545226460374	291.946124903994	728.139051500521	1098.865546761678	245.717586514615	685.085789373304	844.066468656561	264.163472584907	1070.056997686817	1119.481308607380	771.546633578580	1324.822147836330	1099.956478298049	734.615879014715	
19	36.718285714286	720.880335960993	1003.722695398330	518.866065022062	858.476514342131	1432.532522926530	327.525296090556	986.376919819405	1363.861366758602	469.366160505788	929.025115204395	1431.689480554330	654.789349207235	861.276197795620	1489.607242605406	483.443393942513	952.578279367867	936.033353930292	613.928516452478	916.628714108342	956.641907545598	340.652855338796	945.982238392950	722.939476723877	586.573292418696	840.009238668071	630.257892918485	647.560423896921	898.256844092403	565.432736407222	566.357795363840	878.387122881345	481.444429941542	569.863139942141	995.620220611766	777.319337970038	365.861768573017	948.552821697202	645.042612506618	291.415155008837	1058.723985195947	592.361272950470	345.533681539244	1089.207468662614	529.405525177810	342.694543824713	1076.770779611684	456.651129255433	337.118618743811	1015.914397705406	321.532121174120	294.544840363948	1112.374777743380	229.893751519997	346.011676503646	840.719450945177	397.158043909798	574.399148349517	756.732853835206	300.239434771384	631.735431203352	789.829930768610	203.252245204535	565.915606810529	643.969098022128	43.404656531159	525.185572130891	815.198643692357	96.672900667895	567.971633614798	724.459675542185	36.357758677749	601.982244532006	933.020075503061	42.013021352485	598.728507693604	1043.462522193762	46.968234866230	395.359082714207	1113.118071223675	51.397844252890	311.616287327807	1179.925935170874	133.840054737265	324.376164936046	1313.352288248934	111.328507981473	293.904171858034	725.393069042082	1099.240982723920	245.009349878595	678.980711352933	845.090309760860	264.585996824934	1072.534665896051	1120.253890871710	769.128499501377	1327.448342441018	1108.912738648477	731.991393755008	
20	36.729857142857	721.714199358099	1002.649333850203	516.998170713858	858.605423865081	1431.313482711372	325.638141568534	986.528413860383	1362.859251699336	467.537685024256	929.007394534110	1430.838763875134	652.818068321027	861.294138562487	1488.418219279717	481.467702600297	952.992000080891	934.771209747107	612.650637874997	917.745111057774	955.369571405050	339.121479058904	945.270972492695	721.422941023510	585.407786701991	838.696677061489	629.304816014631	646.383346561177	896.615935087812	564.006538098325	565.240444521413	876.058713405047	479.881990567179	568.660019046243	996.887296171952	775.829056924611	364.766616569736	948.589002932393	642.890141898271	292.106602867778	1058.837557628297	590.315791093549	345.650120654730	1088.312409584855	526.663784357656	343.834960463967	1075.080399647094	453.275847778679	338.584785822667	1012.172878021170	318.952591681740	296.873158856660	1107.093197689894	226.241155566782	348.856740571161	837.512150870627	395.818245618075	573.436572530773	752.585386952375	299.917165210585	631.069484275577	784.252346422940	202.493221052203	565.376803250075	636.986378152747	43.395713966036	525.153995318875	808.222402588485	96.633981268782	567.930031773968	717.424746847250	36.294851917097	601.880515718770	925.995603873910	41.852985947511	598.787949409455	1035.262055061121	45.458930723578	399.131599791465	1104.409451699267	48.612183285877	314.898727910378	1173.090431937303	129.095943606792	327.596387586952	1305.734349015835	103.509319934401	296.147140985677	723.254221011172	1099.244763085495	243.977912418239	674.103891211274	845.657474316747	264.572489981789	1074.545400187988	1120.790770898741	766.733226653080	1329.327039892521	1117.139967432328	729.441046128026	
21	36.741428571429	722.673985446813	1001.418706122218	514.899204541050	858.810278358068	1429.946622972294	323.599374303985	986.708107545764	1361.826669661544	465.656553065048	928.842886687867	1429.928195118758	650.769476418171	861.278723225410	1487.136771172362	479.341658470177	953.571118006699	933.393084403718	611.380057109732	919.201811069022	954.018186992684	337.619815324538	944.955342334423	719.823436245723	584.235018834280	837.804528949202	628.194720731271	645.087836013610	895.499434588992	562.431841898422	564.049863303474	874.225890529169	478.096281073927	567.312036025718	998.541033764247	774.098980690944	363.878135919158	949.006501871084	640.738817903812	292.821682966162	1059.059061615815	588.067131270916	346.228248090471	1087.292649487142	523.493861217333	345.394741702800	1073.105606842291	449.493645716468	340.236458174493	1007.827180722667	316.218683876911	299.031729941774	1100.716580312990	222.101037652947	351.802964078865	834.710540965903	394.307145560449	572.341660059324	748.764867339136	299.513777516669	630.294658391179	778.837838840198	201.639055418245	564.740584145927	630.017037555589	43.424045369299	525.112868438803	801.256852085368	96.577097160985	567.829397444241	710.415243100871	36.256037421600	601.781185156788	918.996469038590	41.644823240808	598.862811535882	1025.141198555677	43.808518233409	402.553920495686	1093.924147422490	45.700430269094	317.931349487925	1164.776959427650	123.793885329529	331.016831452164	1296.596076413386	94.619296862213	298.679340567660	721.742563989715	1098.855584630067	242.625218525717	670.456906222886	845.731890229167	264.099903884653	1076.079974301121	1121.058683087912	764.396390443296	1330.503391494019	1124.609064269868	726.981234376340	
